<?xml version="1.0" encoding="UTF-8"?>
<svg width="510px" height="408px" viewBox="0 0 510 408" version="1.1"
     xmlns="http://www.w3.org/2000/svg">
    <!-- Generator: Sketch 46.2 (44496) - http://www.bohemiancoding.com/sketch -->
    <title>folder</title>
    <desc>Created with Sketch.</desc>
    <defs></defs>
    <g id="Page-1" stroke="none" stroke-width="1" fill="none" fill-rule="evenodd">
        <g id="folder" fill-rule="nonzero" fill="#7399C6">::-webkit-scrollbar
            <path d="M459,51 L255,51 L204,0 L51,0 C22.95,0 0,22.95 0,51 L0,357 C0,385.05 22.95,408 51,408 L459,408 C487.05,408 510,385.05 510,357 L510,102 C510,73.95 487.05,51 459,51 Z M331.5,127.5 C359.55,127.5 382.5,150.45 382.5,178.5 C382.5,206.55 359.55,229.5 331.5,229.5 C303.45,229.5 280.5,206.55 280.5,178.5 C280.5,150.45 303.45,127.5 331.5,127.5 Z M433.5,331.5 L229.5,331.5 L229.5,306 C229.5,272.85 298.35,255 331.5,255 C364.65,255 433.5,272.85 433.5,306 L433.5,331.5 Z" id="Shape">
            </path>
        </g>
    </g>
</svg>