<svg width="362px" height="362px" viewBox="-22 -2206 362 362" version="1.1"
     xmlns="http://www.w3.org/2000/svg">
    <defs></defs>
    <g id="PDF-Icon" stroke="none" stroke-width="1" fill="none" fill-rule="evenodd" transform="translate(-22.000000, -2206.000000)">
        <rect id="Rectangle-20" fill="#698B8F" x="0" y="0" width="362" height="362" rx="57"></rect>
        <path d="M83.1,178.325 C90.1500353,178.325 95.3124836,176.625017 98.5875,173.225 C101.862516,169.824983 103.5,165.17503 103.5,159.275 C103.5,156.574987 103.087504,154.112511 102.2625,151.8875 C101.437496,149.662489 100.187508,147.762508 98.5125,146.1875 C96.8374916,144.612492 94.7250128,143.400004 92.175,142.55 C89.6249873,141.699996 86.6000175,141.275 83.1,141.275 L68.85,141.275 L68.85,178.325 L83.1,178.325 Z M83.1,124.175 C90.5500373,124.175 96.9874729,125.049991 102.4125,126.8 C107.837527,128.550009 112.299983,130.987484 115.8,134.1125 C119.300018,137.237516 121.887492,140.949979 123.5625,145.25 C125.237508,149.550022 126.075,154.224975 126.075,159.275 C126.075,164.625027 125.200009,169.524978 123.45,173.975 C121.699991,178.425022 119.050018,182.249984 115.5,185.45 C111.949982,188.650016 107.475027,191.137491 102.075,192.9125 C96.674973,194.687509 90.3500363,195.575 83.1,195.575 L68.85,195.575 L68.85,233 L46.35,233 L46.35,124.175 L83.1,124.175 Z M237.975,178.55 C237.975,186.50004 236.637513,193.812467 233.9625,200.4875 C231.287487,207.162533 227.512524,212.899976 222.6375,217.7 C217.762476,222.500024 211.900034,226.249987 205.05,228.95 C198.199966,231.650014 190.600042,233 182.25,233 L140.4,233 L140.4,124.175 L182.25,124.175 C190.600042,124.175 198.199966,125.524987 205.05,128.225 C211.900034,130.925014 217.762476,134.687476 222.6375,139.5125 C227.512524,144.337524 231.287487,150.074967 233.9625,156.725 C236.637513,163.375033 237.975,170.649961 237.975,178.55 Z M214.875,178.55 C214.875,172.849972 214.125008,167.725023 212.625,163.175 C211.124992,158.624977 208.975014,154.775016 206.175,151.625 C203.374986,148.474984 199.96252,146.050009 195.9375,144.35 C191.91248,142.649992 187.350026,141.8 182.25,141.8 L163.05,141.8 L163.05,215.375 L182.25,215.375 C187.350026,215.375 191.91248,214.537508 195.9375,212.8625 C199.96252,211.187492 203.374986,208.762516 206.175,205.5875 C208.975014,202.412484 211.124992,198.550023 212.625,194 C214.125008,189.449977 214.875,184.300029 214.875,178.55 Z M277.2,141.8 L277.2,171.875 L316.35,171.875 L316.35,189.575 L277.2,189.575 L277.2,233 L254.55,233 L254.55,124.175 L323.85,124.175 L323.85,141.8 L277.2,141.8 Z" id="PDF" fill="#F1F1F1"></path>
    </g>
</svg>
